<svg width="86" height="14" viewBox="0 0 86 14" fill="none" xmlns="http://www.w3.org/2000/svg">
<path d="M79 0L80.8515 4.4516L85.6574 4.83688L81.9958 7.9734L83.1145 12.6631L79 10.15L74.8855 12.6631L76.0042 7.9734L72.3426 4.83688L77.1485 4.4516L79 0Z" fill="#939393"/>
<path d="M61 0L62.8515 4.4516L67.6574 4.83688L63.9958 7.9734L65.1145 12.6631L61 10.15L56.8855 12.6631L58.0042 7.9734L54.3426 4.83688L59.1485 4.4516L61 0Z" fill="#939393"/>
<path d="M43 0L44.8515 4.4516L49.6574 4.83688L45.9958 7.9734L47.1145 12.6631L43 10.15L38.8855 12.6631L40.0042 7.9734L36.3426 4.83688L41.1485 4.4516L43 0Z" fill="#939393"/>
<path d="M25 0L26.8515 4.4516L31.6574 4.83688L27.9958 7.9734L29.1145 12.6631L25 10.15L20.8855 12.6631L22.0042 7.9734L18.3426 4.83688L23.1485 4.4516L25 0Z" fill="#939393"/>
<path d="M7 0L8.85152 4.4516L13.6574 4.83688L9.99583 7.9734L11.1145 12.6631L7 10.15L2.8855 12.6631L4.00417 7.9734L0.342604 4.83688L5.14848 4.4516L7 0Z" fill="#939393"/>
<mask id="mask0_45_3389" style="mask-type:alpha" maskUnits="userSpaceOnUse" x="0" y="0" width="86" height="13">
<path d="M79 0L80.8515 4.4516L85.6574 4.83688L81.9958 7.9734L83.1145 12.6631L79 10.15L74.8855 12.6631L76.0042 7.9734L72.3426 4.83688L77.1485 4.4516L79 0Z" fill="white"/>
<path d="M61 0L62.8515 4.4516L67.6574 4.83688L63.9958 7.9734L65.1145 12.6631L61 10.15L56.8855 12.6631L58.0042 7.9734L54.3426 4.83688L59.1485 4.4516L61 0Z" fill="white"/>
<path d="M43 0L44.8515 4.4516L49.6574 4.83688L45.9958 7.9734L47.1145 12.6631L43 10.15L38.8855 12.6631L40.0042 7.9734L36.3426 4.83688L41.1485 4.4516L43 0Z" fill="white"/>
<path d="M25 0L26.8515 4.4516L31.6574 4.83688L27.9958 7.9734L29.1145 12.6631L25 10.15L20.8855 12.6631L22.0042 7.9734L18.3426 4.83688L23.1485 4.4516L25 0Z" fill="white"/>
<path d="M7 0L8.85152 4.4516L13.6574 4.83688L9.99583 7.9734L11.1145 12.6631L7 10.15L2.8855 12.6631L4.00417 7.9734L0.342604 4.83688L5.14848 4.4516L7 0Z" fill="white"/>
</mask>
<g mask="url(#mask0_45_3389)">
<rect width="61" height="13" fill="#FFBE40"/>
</g>
</svg>
