<svg width="122" height="18" viewBox="0 0 122 18" fill="none" xmlns="http://www.w3.org/2000/svg">
<path d="M113 0L115.381 5.72348L121.56 6.21885L116.852 10.2515L118.29 16.2812L113 13.05L107.71 16.2812L109.148 10.2515L104.44 6.21885L110.619 5.72348L113 0Z" fill="white"/>
<path d="M87 0L89.3805 5.72348L95.5595 6.21885L90.8518 10.2515L92.2901 16.2812L87 13.05L81.7099 16.2812L83.1482 10.2515L78.4405 6.21885L84.6195 5.72348L87 0Z" fill="white"/>
<path d="M61 0L63.3805 5.72348L69.5595 6.21885L64.8518 10.2515L66.2901 16.2812L61 13.05L55.7099 16.2812L57.1482 10.2515L52.4405 6.21885L58.6195 5.72348L61 0Z" fill="white"/>
<path d="M35 0L37.3805 5.72348L43.5595 6.21885L38.8518 10.2515L40.2901 16.2812L35 13.05L29.7099 16.2812L31.1482 10.2515L26.4405 6.21885L32.6195 5.72348L35 0Z" fill="white"/>
<path d="M9 0L11.3805 5.72348L17.5595 6.21885L12.8518 10.2515L14.2901 16.2812L9 13.05L3.70993 16.2812L5.14822 10.2515L0.440492 6.21885L6.61947 5.72348L9 0Z" fill="white"/>
<mask id="mask0_45_3294" style="mask-type:alpha" maskUnits="userSpaceOnUse" x="0" y="0" width="122" height="17">
<path d="M113 0L115.381 5.72348L121.56 6.21885L116.852 10.2515L118.29 16.2812L113 13.05L107.71 16.2812L109.148 10.2515L104.44 6.21885L110.619 5.72348L113 0Z" fill="white"/>
<path d="M87 0L89.3805 5.72348L95.5595 6.21885L90.8518 10.2515L92.2901 16.2812L87 13.05L81.7099 16.2812L83.1482 10.2515L78.4405 6.21885L84.6195 5.72348L87 0Z" fill="white"/>
<path d="M61 0L63.3805 5.72348L69.5595 6.21885L64.8518 10.2515L66.2901 16.2812L61 13.05L55.7099 16.2812L57.1482 10.2515L52.4405 6.21885L58.6195 5.72348L61 0Z" fill="white"/>
<path d="M35 0L37.3805 5.72348L43.5595 6.21885L38.8518 10.2515L40.2901 16.2812L35 13.05L29.7099 16.2812L31.1482 10.2515L26.4405 6.21885L32.6195 5.72348L35 0Z" fill="white"/>
<path d="M9 0L11.3805 5.72348L17.5595 6.21885L12.8518 10.2515L14.2901 16.2812L9 13.05L3.70993 16.2812L5.14822 10.2515L0.440492 6.21885L6.61947 5.72348L9 0Z" fill="white"/>
</mask>
<g mask="url(#mask0_45_3294)">
<rect width="87" height="18" fill="#FFBE40"/>
</g>
</svg>
