<?xml version="1.0" standalone="no"?>
<!DOCTYPE svg PUBLIC "-//W3C//DTD SVG 1.1//EN" "http://www.w3.org/Graphics/SVG/1.1/DTD/svg11.dtd" >
<svg xmlns="http://www.w3.org/2000/svg">
<metadata>Generated by IcoMoon</metadata>
<defs>
<font id="icons" horiz-adv-x="1024">
<font-face units-per-em="1024" ascent="960" descent="-64" />
<missing-glyph horiz-adv-x="1024" />
<glyph unicode="&#x20;" horiz-adv-x="512" d="" />
<glyph unicode="&#xe900;" glyph-name="close" horiz-adv-x="956" d="M925.232 799.373h-213.514v50.196c0 29.288-11.783 57.377-32.758 78.087s-49.422 32.345-79.084 32.345h-244.019c-29.661 0-58.108-11.635-79.082-32.345s-32.757-48.799-32.757-78.087v-50.196h-213.515c-8.090 0-15.848-3.173-21.568-8.821s-8.934-13.309-8.934-21.296c0-7.988 3.214-15.648 8.934-21.296s13.479-8.821 21.568-8.821h50.837v-732.863c0-18.637 7.498-36.512 20.846-49.691s31.45-20.582 50.326-20.582h650.712c18.876 0 36.98 7.404 50.326 20.582s20.845 31.055 20.845 49.691v732.863h50.838c8.090 0 15.848 3.173 21.569 8.821s8.933 13.309 8.933 21.296c0 7.988-3.212 15.648-8.933 21.296s-13.479 8.821-21.569 8.821zM305.021 849.569c0 13.313 5.356 26.080 14.89 35.494s22.463 14.702 35.946 14.702h244.019c13.483 0 26.412-5.288 35.946-14.702s14.889-22.181 14.889-35.494v-50.196h-345.69v50.196zM813.391 6.274c0-2.662-1.072-5.216-2.98-7.1-1.905-1.881-4.492-2.939-7.188-2.939h-650.712c-2.697 0-5.282 1.058-7.189 2.939-1.907 1.884-2.978 4.437-2.978 7.1v732.863h671.047v-732.863zM386.359 528.312v-321.253c0-7.987-3.212-15.65-8.933-21.296-5.721-5.649-13.479-8.823-21.569-8.823s-15.847 3.174-21.567 8.823c-5.72 5.646-8.934 13.309-8.934 21.296v321.253c0 7.991 3.214 15.65 8.934 21.299 5.72 5.646 13.478 8.82 21.567 8.82s15.848-3.174 21.569-8.82c5.721-5.649 8.933-13.309 8.933-21.299zM630.378 528.312v-321.253c0-7.987-3.215-15.65-8.933-21.296-5.721-5.649-13.479-8.823-21.569-8.823s-15.848 3.174-21.569 8.823c-5.721 5.646-8.933 13.309-8.933 21.296v321.253c0 7.991 3.212 15.65 8.933 21.299 5.721 5.646 13.479 8.82 21.569 8.82s15.848-3.174 21.569-8.82c5.717-5.649 8.933-13.309 8.933-21.299z" />
<glyph unicode="&#xe901;" glyph-name="user" horiz-adv-x="945" d="M472.615 550.4c89.273 0 160.689 69.12 160.689 153.6s-71.416 153.6-160.689 153.6c-89.272 0-160.689-69.12-160.689-153.6s71.417-153.6 160.689-153.6zM472.615 448c-147.036 0-265.715 114.688-265.715 256s118.679 256 265.715 256c147.035 0 265.716-114.688 265.716-256s-118.682-256-265.716-256zM105.026 38.4h735.178v68.096c0 89.6-121.305 182.272-367.588 182.272-246.285 0-367.59-92.672-367.59-182.272v-68.096zM472.615 391.168c349.735 0 472.615-170.496 472.615-284.672v-170.496h-945.231v170.496c0 114.176 122.88 284.672 472.615 284.672z" />
<glyph unicode="&#xe902;" glyph-name="star" horiz-adv-x="1126" d="M563.2 960l148.966-358.163 386.668-30.999-294.6-252.354 90.004-377.324-331.039 202.199-331.041-202.199 90.005 377.324-294.599 252.354 386.667 30.999 148.968 358.163z" />
<glyph unicode="&#xe903;" glyph-name="double-arrow" horiz-adv-x="1075" d="M531.441 837.426c6.108 6.392 13.379 11.466 21.386 14.929s16.599 5.245 25.272 5.245c8.678 0 17.27-1.783 25.277-5.245s15.278-8.537 21.386-14.929l328.596-341.004c6.159-6.34 11.049-13.883 14.387-22.194 3.333-8.311 5.053-17.225 5.053-26.228 0-9.001-1.72-17.92-5.053-26.23-3.338-8.31-8.228-15.852-14.387-22.195l-328.596-341.002c-6.108-6.39-13.379-11.464-21.386-14.93-8.008-3.461-16.599-5.243-25.277-5.243-8.673 0-17.265 1.782-25.272 5.243-8.008 3.466-15.278 8.54-21.386 14.93-6.159 6.344-11.049 13.885-14.387 22.195-3.333 8.31-5.053 17.224-5.053 26.23 0 9.001 1.72 17.915 5.053 26.225 3.338 8.315 8.228 15.857 14.387 22.195l282.593 292.582-282.593 292.581c-6.159 6.34-11.049 13.883-14.387 22.194-3.333 8.311-5.053 17.225-5.053 26.228s1.72 17.917 5.053 26.228c3.338 8.311 8.228 15.854 14.387 22.194zM173.040 837.426c6.11 6.392 13.379 11.466 21.387 14.929s16.599 5.245 25.274 5.245c8.676 0 17.266-1.783 25.274-5.245s15.277-8.537 21.387-14.929l328.598-341.004c6.159-6.34 11.049-13.883 14.387-22.194 3.333-8.311 5.053-17.225 5.053-26.228 0-9.001-1.72-17.92-5.053-26.23-3.338-8.31-8.228-15.852-14.387-22.195l-328.598-341.002c-6.11-6.39-13.378-11.464-21.387-14.93-8.009-3.461-16.599-5.243-25.274-5.243s-17.266 1.782-25.274 5.243c-8.008 3.466-15.277 8.54-21.387 14.93-6.159 6.344-11.049 13.885-14.385 22.195s-5.054 17.224-5.054 26.23c0 9.001 1.718 17.915 5.054 26.225 3.336 8.315 8.225 15.857 14.385 22.195l282.595 292.582-282.595 292.581c-6.16 6.34-11.049 13.883-14.385 22.194s-5.054 17.225-5.054 26.228c0 9.004 1.718 17.917 5.054 26.228s8.225 15.854 14.385 22.194z" />
<glyph unicode="&#xe904;" glyph-name="arrow" horiz-adv-x="576" d="M24.3 934.783c7.637 7.99 16.723 14.333 26.733 18.661s20.748 6.556 31.593 6.556c10.845 0 21.582-2.228 31.593-6.556s19.096-10.67 26.733-18.661l410.748-426.255c7.7-7.925 13.811-17.354 17.981-27.743s6.318-21.531 6.318-32.785c0-11.254-2.147-22.397-6.318-32.785s-10.282-19.818-17.981-27.743l-410.748-426.256c-7.637-7.987-16.723-14.33-26.733-18.662-10.011-4.326-20.748-6.554-31.593-6.554s-21.582 2.227-31.593 6.554c-10.011 4.333-19.097 10.675-26.733 18.662-7.7 7.923-13.811 17.357-17.982 27.744s-6.318 21.53-6.318 32.787c0 11.251 2.147 22.394 6.318 32.781 4.171 10.394 10.282 19.821 17.982 27.744l353.243 365.728-353.243 365.727c-7.7 7.925-13.811 17.354-17.982 27.743s-6.318 21.531-6.318 32.785c0 11.254 2.147 22.397 6.318 32.786s10.282 19.817 17.982 27.743z" />
<glyph unicode="&#xe905;" glyph-name="sort" d="M987.494 342.93c20.173-19.603 20.173-51.384 0-70.988l-309.894-301.184c-14.771-14.362-36.986-18.656-56.284-10.886-19.3 7.77-31.884 26.074-31.884 46.381l0.001 903.55c0 27.723 23.124 50.197 51.649 50.197s51.648-22.474 51.648-50.197v-782.366l221.728 215.493c20.166 19.603 52.87 19.603 73.037 0zM402.601 936.125c19.3-7.77 31.884-26.073 31.884-46.376v-903.554c0-27.718-23.124-50.195-51.649-50.195s-51.649 22.477-51.649 50.195v782.367l-221.724-215.492c-20.17-19.603-52.873-19.603-73.043 0s-20.17 51.386 0 70.99l309.895 301.184c14.771 14.356 36.987 18.651 56.287 10.881z" />
<glyph unicode="&#xe906;" glyph-name="filter" horiz-adv-x="1638" d="M546.133 9.143c0 19.399 7.193 38.003 19.996 51.719 12.802 13.718 30.166 21.423 48.271 21.423h409.6c18.104 0 35.471-7.706 48.271-21.423s19.999-32.321 19.999-51.719-7.199-38.004-19.999-51.72c-12.8-13.718-30.167-21.423-48.271-21.423h-409.6c-18.105 0-35.469 7.706-48.271 21.423-12.803 13.716-19.996 32.322-19.996 51.72zM273.067 448c0 19.399 7.192 38.003 19.995 51.72 12.802 13.716 30.166 21.423 48.271 21.423h955.737c18.104 0 35.461-7.707 48.271-21.423 12.8-13.718 19.988-32.322 19.988-51.72s-7.188-38.003-19.988-51.72c-12.81-13.716-30.167-21.423-48.271-21.423h-955.737c-18.105 0-35.469 7.707-48.271 21.423-12.803 13.718-19.995 32.322-19.995 51.72zM0 886.857c0 19.399 7.192 38.003 19.995 51.72s30.166 21.423 48.272 21.423h1501.863c18.104 0 35.471-7.706 48.271-21.423 12.81-13.717 19.999-32.321 19.999-51.72s-7.188-38.003-19.999-51.72c-12.8-13.718-30.167-21.423-48.271-21.423h-1501.863c-18.105 0-35.469 7.706-48.272 21.423s-19.995 32.321-19.995 51.72z" />
<glyph unicode="&#xe907;" glyph-name="search" d="M283.653 925.023c55.748 23.092 115.499 34.977 175.842 34.977 60.339 0 120.090-11.885 175.838-34.977s106.402-56.938 149.073-99.606c42.667-42.668 76.514-93.322 99.605-149.070s34.974-115.499 34.974-175.842c0-60.339-11.883-120.090-34.974-175.838-18.052-43.584-42.679-84.053-72.951-120.026l201.404-201.408c15.381-15.381 15.381-40.32 0-55.697-15.377-15.381-40.316-15.381-55.697 0l-201.408 201.404c-82.5-69.436-187.196-107.925-295.863-107.925-121.866 0-238.74 48.41-324.912 134.579-86.172 86.174-134.583 203.046-134.583 324.911 0 121.866 48.411 238.74 134.583 324.912 42.668 42.668 93.322 76.514 149.070 99.606zM459.494 881.231c-49.999 0-99.506-9.848-145.698-28.981s-88.162-47.177-123.516-82.531c-71.399-71.4-111.511-168.239-111.511-269.214s40.112-197.811 111.511-269.21c71.4-71.403 168.239-111.514 269.214-111.514s197.811 40.111 269.21 111.514c35.354 35.354 63.398 77.321 82.53 123.516 19.136 46.191 28.983 95.697 28.983 145.694 0 49.999-9.847 99.506-28.979 145.698-19.136 46.191-47.181 88.162-82.534 123.516s-77.321 63.397-123.516 82.531c-46.191 19.133-95.697 28.981-145.694 28.981z" />
<glyph unicode="&#xe908;" glyph-name="inst" d="M564.634 931.44c37.361 0.135 74.721-0.219 112.072-1.064l9.933-0.338c11.469-0.387 22.784-0.87 36.454-1.451 54.472-2.418 91.643-10.541 124.252-22.484 33.792-12.282 62.259-28.916 90.721-55.801 26.030-24.158 46.172-53.38 59.034-85.635 12.646-30.801 21.248-65.955 23.808-117.403 0.614-12.862 1.126-23.597 1.536-34.428l0.307-9.38c0.906-35.259 1.3-70.529 1.178-105.799l0.051-36.072v-63.342c0.123-35.287-0.271-70.574-1.178-105.851l-0.307-9.38c-0.41-10.829-0.922-21.514-1.536-34.427-2.56-51.446-11.264-86.554-23.859-117.356-12.82-32.287-32.968-61.532-59.034-85.683-25.6-24.576-56.556-43.602-90.721-55.752-32.609-11.945-69.78-20.065-124.252-22.482-13.67-0.584-24.986-1.065-36.454-1.454l-9.933-0.287c-37.35-0.86-74.711-1.234-112.072-1.116l-105.21-0.046c-37.361-0.118-74.721 0.251-112.071 1.111l-9.932 0.292c-12.154 0.415-24.305 0.901-36.453 1.449-54.474 2.417-91.643 10.639-124.307 22.533-34.165 12.119-65.111 31.15-90.671 55.752-26.057 24.166-46.22 53.407-59.082 85.683-12.646 30.802-21.247 65.91-23.807 117.356-0.57 11.474-1.082 22.948-1.536 34.427l-0.256 9.38c-0.944 35.277-1.371 70.564-1.28 105.851v99.414c-0.143 35.27 0.233 70.539 1.126 105.799l0.358 9.38c0.41 10.831 0.922 21.566 1.536 34.428 2.56 51.497 11.161 86.553 23.807 117.403 12.87 32.27 33.072 61.485 59.184 85.586 25.542 24.624 56.469 43.684 90.619 55.849 32.664 11.943 69.782 20.067 124.307 22.484l36.453 1.451 9.932 0.242c37.332 0.891 74.676 1.294 112.020 1.209l105.261-0.048zM512.005 689.671c-33.92 0.453-67.595-5.466-99.070-17.411s-60.123-29.68-84.278-52.173c-24.155-22.493-43.336-49.296-56.428-78.851s-19.833-61.273-19.833-93.313c0-32.036 6.742-63.754 19.833-93.307 13.092-29.558 32.273-56.361 56.428-78.853s52.803-40.228 84.278-52.173c31.475-11.945 65.15-17.864 99.070-17.408 67.891 0 133.002 25.472 181.007 70.81 48.010 45.343 74.977 106.834 74.977 170.957s-26.967 125.617-74.977 170.958c-48.005 45.341-113.116 70.765-181.007 70.765zM512.005 592.963c20.403 0.355 40.673-3.133 59.633-10.261s36.224-17.753 50.785-31.253c14.566-13.5 26.132-29.606 34.033-47.377 7.895-17.77 11.965-36.849 11.971-56.123 0-19.272-4.060-38.349-11.955-56.125-7.89-17.772-19.451-33.879-34.012-47.386-14.556-13.507-31.816-24.136-50.775-31.268-18.954-7.137-39.224-10.629-59.628-10.281-40.737 0-79.804 15.283-108.608 42.486-28.804 27.208-44.986 64.102-44.986 102.574 0 38.474 16.182 75.371 44.986 102.575s67.871 42.488 108.608 42.488l-0.051-0.049zM780.79 762.202c-16.517-0.624-32.138-7.26-43.592-18.518-11.448-11.258-17.848-26.264-17.848-41.876s6.4-30.618 17.848-41.875c11.453-11.258 27.075-17.894 43.592-18.519 16.973 0 33.249 6.368 45.251 17.703s18.744 26.709 18.744 42.739c0 16.030-6.743 31.404-18.744 42.739s-28.278 17.703-45.251 17.703v-0.097z" />
<glyph unicode="&#xe909;" glyph-name="youtube" horiz-adv-x="1463" d="M585.143 239.116l379.611 208.979-379.611 208.979v-417.959zM1430.674 784.552c9.509-32.74 16.091-76.626 20.48-132.353 5.12-55.728 7.314-103.793 7.314-145.589l4.389-58.514c0-152.555-11.703-264.704-32.183-336.457-18.286-62.691-60.709-103.095-126.537-120.51-34.377-9.055-97.28-15.323-193.829-19.507-95.086-4.879-182.126-6.963-262.583-6.963l-116.297-4.184c-306.469 0-497.371 11.147-572.709 30.654-65.829 17.415-108.251 57.819-126.537 120.51-9.509 32.739-16.091 76.624-20.48 132.354-5.12 55.728-7.314 103.793-7.314 145.589l-4.389 58.514c0 152.556 11.703 264.708 32.183 336.457 18.286 62.694 60.709 103.097 126.537 120.512 34.377 9.056 97.28 15.325 193.829 19.505 95.086 4.876 182.126 6.966 262.583 6.966l116.297 4.18c306.469 0 497.371-11.146 572.709-30.65 65.829-17.415 108.251-57.818 126.537-120.512z" />
<glyph unicode="&#xe90a;" glyph-name="facebook" d="M967.68 960h-911.36c-14.937 0-29.262-5.934-39.824-16.496s-16.496-24.887-16.496-39.824v-911.36c0-14.935 5.934-29.261 16.496-39.823s24.887-16.497 39.824-16.497h490.496v396.8h-133.12v153.6h133.12v115.2c-2.76 27.046 0.435 54.368 9.354 80.049s23.352 49.1 42.281 68.615c18.929 19.514 41.897 34.651 67.292 44.348 25.4 9.698 52.613 13.721 79.729 11.788 39.849 0.245 79.683-1.806 119.296-6.144v-138.24h-81.408c-64.512 0-76.8-30.72-76.8-75.264v-98.816h153.6l-19.968-153.6h-133.632v-398.336h261.12c7.398 0 14.72 1.459 21.555 4.285 6.83 2.831 13.041 6.979 18.268 12.211 5.233 5.228 9.38 11.438 12.211 18.268 2.826 6.835 4.285 14.157 4.285 21.555v911.36c0 7.396-1.459 14.72-4.285 21.553-2.831 6.833-6.979 13.042-12.211 18.271-5.228 5.23-11.438 9.378-18.268 12.209-6.835 2.83-14.157 4.287-21.555 4.287z" />
<glyph unicode="&#xe90b;" glyph-name="vk" horiz-adv-x="1707" d="M1638.007-49.809h-186.786c-70.673 0-91.964 56.209-218.641 180.676-110.711 104.771-157.474 117.798-185.481 117.798-38.733 0-49.297-10.453-49.297-62.799v-164.994c0-44.629-14.737-70.758-133.478-70.758-115.189 7.595-226.895 41.958-325.914 100.25-99.018 58.298-182.515 138.858-243.614 235.047-145.073 177.297-246.015 385.388-294.797 607.721 0 27.499 10.645 52.426 64.036 52.426h186.704c47.986 0 65.265-20.986 84.099-69.472 90.65-261.968 245.336-489.844 308.145-489.844 24.075 0 34.557 10.453 34.557 69.392v269.848c-7.944 123.104-74.518 133.477-74.518 178.023 0.842 11.752 6.317 22.719 15.262 30.572s20.655 11.971 32.643 11.482h293.49c40.124 0 53.385-19.619 53.385-66.738v-364.246c0-39.319 17.203-52.345 29.321-52.345 24.073 0 42.581 13.026 86.716 56.285 94.609 113.295 171.904 239.521 229.453 374.7 5.888 16.23 17.024 30.123 31.71 39.559 14.677 9.436 32.102 13.898 49.604 12.706h186.786c56.013 0 67.883-27.499 56.013-66.738-67.934-149.431-151.996-291.277-250.743-423.105-20.147-30.153-28.169-45.833 0-81.212 18.509-27.5 84.019-81.212 127.991-132.271 64.034-62.717 117.18-135.246 157.389-214.691 16.051-51.14-10.726-77.269-64.034-77.269z" />
<glyph unicode="&#xe90c;" glyph-name="email" horiz-adv-x="1229" d="M1105.92 960h-983.040c-67.584 0-122.88-57.6-122.88-128v-768c0-70.4 55.296-128 122.88-128h983.040c67.584 0 122.88 57.6 122.88 128v768c0 70.4-55.296 128-122.88 128zM1081.344 688l-401.818-261.76c-39.936-26.24-90.317-26.24-130.253 0l-401.818 261.76c-6.161 3.602-11.556 8.47-15.858 14.307s-7.424 12.524-9.174 19.654c-1.75 7.13-2.094 14.556-1.009 21.828s3.574 14.239 7.319 20.48c3.744 6.241 8.666 11.625 14.466 15.828s12.359 7.135 19.278 8.621c6.92 1.485 14.057 1.493 20.98 0.022s13.487-4.389 19.295-8.579l411.648-268.16 411.648 268.16c5.806 4.19 12.375 7.109 19.297 8.579s14.060 1.463 20.977-0.022c6.922-1.486 13.476-4.419 19.277-8.621s10.721-9.587 14.469-15.828c3.743-6.241 6.231-13.208 7.316-20.48s0.742-14.698-1.009-21.828c-1.751-7.13-4.869-13.816-9.175-19.654-4.301-5.837-9.697-10.704-15.857-14.307z" />
<glyph unicode="&#xe90d;" glyph-name="favorites" horiz-adv-x="1138" d="M822.858 936.889c-104.892 0-196.722-45.233-253.969-121.69-57.244 76.458-149.080 121.69-253.968 121.69-83.493-0.094-163.54-33.398-222.578-92.604s-92.248-139.481-92.342-223.211c0-356.563 527.187-645.177 549.638-657.101 5.917-3.191 12.531-4.864 19.251-4.864s13.335 1.673 19.251 4.864c22.448 11.924 549.638 300.538 549.638 657.101-0.097 83.73-33.303 164.004-92.342 223.211s-139.088 92.51-222.578 92.604zM568.889 46.495c-92.749 54.198-487.619 301.090-487.619 574.578 0.081 62.119 24.723 121.671 68.524 165.596s103.184 68.638 165.127 68.718c98.794 0 181.74-52.772 216.381-137.532 3.061-7.474 8.269-13.867 14.962-18.365s14.568-6.901 22.625-6.901c8.055 0 15.935 2.402 22.625 6.901 6.696 4.499 11.901 10.891 14.962 18.365 34.64 84.913 117.589 137.532 216.383 137.532 61.941-0.081 121.327-24.793 165.126-68.718s68.443-103.477 68.523-165.596c0-273.079-394.968-520.329-487.617-574.578z" />
<glyph unicode="&#xe90e;" glyph-name="triangle-right" horiz-adv-x="878" d="M54.857 908.769v-921.628c0.029-9.333 2.607-18.476 7.457-26.456 4.849-7.973 11.786-14.482 20.064-18.812 8.278-4.337 17.583-6.334 26.914-5.786 9.331 0.556 18.335 3.635 26.041 8.916l666.788 460.813c27.648 19.098 27.648 65.077 0 84.226l-666.788 460.814c-7.69 5.334-16.699 8.462-26.045 9.044s-18.674-1.404-26.969-5.742c-8.296-4.338-15.241-10.863-20.083-18.865s-7.393-17.176-7.379-26.524z" />
<glyph unicode="&#xe90f;" glyph-name="triangle-left" horiz-adv-x="878" d="M822.857 908.769v-921.628c-0.029-9.333-2.604-18.476-7.453-26.456-4.849-7.973-11.791-14.482-20.070-18.812-8.272-4.337-17.584-6.334-26.909-5.786-9.333 0.556-18.337 3.635-26.046 8.916l-666.786 460.813c-27.646 19.098-27.646 65.077 0 84.226l666.786 460.814c7.695 5.334 16.699 8.462 26.046 9.044s18.673-1.404 26.975-5.742c8.294-4.338 15.236-10.863 20.078-18.865s7.395-17.176 7.38-26.524z" />
<glyph unicode="&#xe910;" glyph-name="percent" horiz-adv-x="945" d="M141.651 14.769c-16.804 0-25.206 8.405-25.206 25.206 0 5.041 1.681 9.665 5.041 13.863l621.332 819.2c5.882 7.562 11.343 13.443 16.384 17.644 5.882 4.201 14.284 6.302 25.206 6.302h21.424c16.801 0 25.206-8.402 25.206-25.206 0-5.041-1.678-9.663-5.041-13.863l-621.331-819.2c-5.881-7.562-11.343-13.446-16.384-17.644s-13.443-6.302-25.206-6.302h-21.425zM694.927 7.207c-54.613 0-97.044 15.541-127.291 46.631-30.247 31.925-46.631 73.098-49.152 123.51-0.84 21.845-1.26 39.91-1.26 54.193 0 15.124 0.421 34.448 1.26 57.974 2.521 50.412 18.065 91.583 46.631 123.51s71.838 47.892 129.812 47.892c57.974 0 101.241-15.964 129.811-47.892s44.111-73.098 46.631-123.51c1.678-23.526 2.521-42.85 2.521-57.974 0-14.283-0.843-32.348-2.521-54.193-2.521-50.412-18.905-91.585-49.152-123.51-30.247-31.090-72.676-46.631-127.29-46.631zM694.927 77.785c25.206 0 44.951 5.041 59.234 15.124 15.124 10.925 26.047 24.363 32.768 40.33 6.718 15.967 10.499 31.925 11.342 47.892 1.678 23.526 2.521 41.17 2.521 52.933 0 12.603-0.843 29.828-2.521 51.673-0.843 25.206-9.24 48.732-25.205 70.577-15.124 22.686-41.17 34.028-78.139 34.028s-63.015-11.343-78.139-34.028c-15.124-21.845-23.525-45.371-25.206-70.577-0.84-21.845-1.26-39.070-1.26-51.673 0-11.763 0.421-29.407 1.26-52.933 1.681-15.967 5.462-31.925 11.343-47.892 6.722-15.967 17.224-29.405 31.508-40.33 15.124-10.082 35.289-15.124 60.495-15.124zM250.038 455.877c-54.613 0-97.044 14.704-127.291 44.111s-46.631 69.317-49.152 119.729c-0.84 21.845-1.26 39.91-1.26 54.193 0 15.124 0.42 34.448 1.26 57.974 2.521 50.412 18.065 91.583 46.631 123.51s71.838 47.892 129.812 47.892c57.974 0 101.245-15.964 129.812-47.892s44.111-73.098 46.631-123.51c1.681-23.526 2.521-42.85 2.521-57.974 0-14.283-0.84-32.348-2.521-54.193-2.521-50.412-18.905-90.322-49.152-119.729s-72.677-44.111-127.291-44.111zM250.038 520.153c25.206 0 44.951 5.041 59.234 15.124 15.124 10.923 26.047 24.366 32.768 40.33s10.503 31.928 11.343 47.892c1.681 23.526 2.521 41.17 2.521 52.933 0 12.603-0.84 29.828-2.521 51.673-0.84 25.206-9.242 48.732-25.206 70.577-15.124 22.686-41.17 34.028-78.139 34.028s-63.015-11.343-78.139-34.028c-15.124-21.845-23.525-45.371-25.206-70.577-0.84-21.845-1.26-39.070-1.26-51.673 0-11.763 0.421-29.407 1.26-52.933 1.681-15.964 5.462-31.928 11.343-47.892 6.722-15.964 17.224-29.407 31.508-40.33 15.124-10.082 35.289-15.124 60.495-15.124z" />
<glyph unicode="&#xe911;" glyph-name="bus" horiz-adv-x="1092" d="M26.006 916.127v26.006c-6.897 0-13.512-2.74-18.389-7.617s-7.617-11.492-7.617-18.389h26.006zM598.146 916.127h26.006c0 6.897-2.741 13.512-7.615 18.389-4.878 4.877-11.493 7.617-18.391 7.617v-26.006zM598.146 604.051v26.007c-6.898 0-13.513-2.74-18.388-7.617-4.878-4.876-7.619-11.491-7.619-18.389h26.006zM26.006 890.121h572.139v52.013h-572.139v-52.013zM572.14 916.127v-832.203h52.012v832.203h-52.012zM52.013 187.948v728.179h-52.013v-728.179h52.013zM598.146 578.045h260.065v52.013h-260.065v-52.013zM1040.254 396.001v-208.053h52.012v208.053h-52.012zM624.152 83.924v520.127h-52.012v-520.127h52.012zM913.343 28.791c-14.63-14.612-34.458-22.818-55.132-22.818-20.678 0-40.506 8.206-55.136 22.818l-36.823-36.826c12.073-12.076 26.409-21.658 42.189-28.194 15.776-6.54 32.689-9.902 49.77-9.902 17.077 0 33.99 3.362 49.766 9.902 15.78 6.537 30.116 16.118 42.192 28.194l-36.826 36.826zM803.075 139.056c14.63 14.612 34.458 22.818 55.136 22.818 20.675 0 40.503-8.206 55.132-22.818l36.826 36.826c-12.076 12.080-26.412 21.661-42.192 28.198-15.776 6.537-32.689 9.899-49.766 9.899-17.080 0-33.993-3.362-49.77-9.899-15.78-6.537-30.116-16.118-42.189-28.198l36.823-36.826zM289.191 28.791c-14.629-14.612-34.458-22.818-55.134-22.818s-40.505 8.206-55.134 22.818l-36.825-36.826c12.075-12.076 26.411-21.658 42.189-28.194 15.778-6.54 32.69-9.902 49.769-9.902s33.991 3.362 49.769 9.902c15.778 6.537 30.114 16.118 42.189 28.194l-36.825 36.826zM178.924 139.056c14.629 14.612 34.459 22.818 55.134 22.818s40.505-8.206 55.134-22.818l36.825 36.826c-12.075 12.080-26.411 21.661-42.189 28.198s-32.69 9.899-49.769 9.899c-17.079 0-33.99-3.362-49.769-9.899s-30.114-16.118-42.189-28.198l36.825-36.826zM913.343 139.056c15.292-15.186 22.886-35.106 22.886-55.132h52.012c0 33.236-12.691 66.577-38.072 91.959l-36.826-36.826zM936.23 83.924c0-20.026-7.595-39.946-22.886-55.132l36.826-36.826c12.087 12.066 21.671 26.402 28.204 42.182s9.888 32.696 9.868 49.777h-52.012zM754.183 109.93h-156.037v-52.012h156.037v52.012zM803.075 28.791c-7.26 7.226-13.018 15.817-16.947 25.279s-5.946 19.61-5.939 29.853h-52.012c0-33.236 12.691-66.577 38.076-91.959l36.823 36.826zM780.189 83.924c0 20.026 7.595 39.946 22.886 55.132l-36.823 36.826c-12.090-12.066-21.675-26.402-28.208-42.182s-9.888-32.696-9.868-49.777h52.012zM178.924 28.791c-7.261 7.226-13.021 15.817-16.948 25.279s-5.946 19.61-5.937 29.853h-52.013c0-33.236 12.691-66.577 38.073-91.959l36.825 36.826zM156.038 83.924c0 20.026 7.594 39.946 22.885 55.132l-36.825 36.826c-12.088-12.066-21.673-26.402-28.207-42.182s-9.886-32.696-9.866-49.777h52.013zM598.146 109.93h-260.063v-52.012h260.063v52.012zM289.191 139.056c15.292-15.186 22.886-35.106 22.886-55.132h52.014c0 33.236-12.691 66.577-38.074 91.959l-36.825-36.826zM312.076 83.924c0-20.026-7.594-39.946-22.886-55.132l36.825-36.826c12.088 12.066 21.673 26.402 28.206 42.182s9.888 32.696 9.868 49.777h-52.014zM1040.254 187.948c0-20.692-8.219-40.537-22.852-55.166-14.63-14.633-34.475-22.852-55.166-22.852v-52.012c34.485 0 67.56 13.701 91.945 38.086s38.086 57.46 38.086 91.945h-52.012zM858.211 578.045c48.278 0 94.583-19.18 128.724-53.32s53.32-80.442 53.32-128.724h52.012c0 62.075-24.658 121.607-68.553 165.502s-103.427 68.554-165.502 68.554v-52.013zM0 187.948c0-34.485 13.7-67.56 38.085-91.945s57.46-38.086 91.946-38.086v52.012c-20.692 0-40.536 8.219-55.168 22.852-14.631 14.63-22.851 34.475-22.851 55.166h-52.013zM8.933 656c0 9.426 7.641 17.067 17.067 17.067h156.038c9.426 0 17.067-7.641 17.067-17.067s-7.641-17.067-17.067-17.067h-156.038c-9.426 0-17.067 7.641-17.067 17.067zM8.933 447.949c0 9.428 7.641 17.067 17.067 17.067h260.064c9.426 0 17.067-7.639 17.067-17.067 0-9.424-7.641-17.067-17.067-17.067h-260.064c-9.426 0-17.067 7.642-17.067 17.067z" />
<glyph unicode="&#xe912;" glyph-name="location" d="M800 544c0 159.058-128.942 288-288 288s-288-128.942-288-288v0c0-118.144 94.528-272.128 288-456.576 193.472 184.448 288 338.432 288 456.576zM512 0c-234.688 213.312-352 394.688-352 544 0 194.404 157.596 352 352 352s352-157.596 352-352v0c0-149.312-117.312-330.688-352-544zM512 448c53.019 0 96 42.981 96 96s-42.981 96-96 96v0c-53.019 0-96-42.981-96-96s42.981-96 96-96v0zM512 384c-88.366 0-160 71.634-160 160s71.634 160 160 160v0c88.366 0 160-71.634 160-160s-71.634-160-160-160v0z" />
<glyph unicode="&#xe913;" glyph-name="cart" d="M1017.302 756.373c-2.72 3.265-6.126 5.892-9.972 7.695-3.849 1.803-8.047 2.738-12.297 2.738h-787.332l-24.972 137.651c-2.83 15.589-11.043 29.689-23.208 39.84s-27.509 15.709-43.353 15.703h-87.186c-7.686 0-15.058-3.053-20.493-8.488s-8.489-12.806-8.489-20.491c0-7.686 3.053-15.057 8.489-20.491s12.807-8.488 20.493-8.488h86.945c2.288 0.037 4.514-0.738 6.283-2.189s2.966-3.482 3.377-5.732l123.22-677.629c3.909-21.618 14.442-41.484 30.141-56.85-18.957-15.161-33.114-35.491-40.756-58.531-7.643-23.037-8.443-47.8-2.306-71.282 6.137-23.486 18.95-44.689 36.888-61.042 17.938-16.357 40.231-27.163 64.183-31.112 23.953-3.951 48.535-0.873 70.773 8.855 22.242 9.731 41.186 25.696 54.54 45.966 13.354 20.272 20.546 43.978 20.706 68.25 0.16 24.275-6.716 48.074-19.802 68.518h252.235c-15.017-23.501-21.784-51.333-19.233-79.104 2.551-27.774 14.276-53.908 33.325-74.279s44.339-33.822 71.882-38.231c27.54-4.409 55.766 0.476 80.224 13.881 24.456 13.408 43.755 34.572 54.85 60.16s13.357 54.142 6.427 81.158c-6.93 27.016-22.658 50.953-44.701 68.042s-49.146 26.353-77.038 26.332h-467.715c-11.312 0-22.266 3.966-30.952 11.213-8.686 7.249-14.553 17.312-16.577 28.44l-17.391 95.584h571.757c24.889-0.006 48.989 8.722 68.099 24.663 19.11 15.938 32.021 38.081 36.478 62.563l58.687 322.974c0.756 4.168 0.593 8.452-0.485 12.549-1.075 4.097-3.039 7.909-5.746 11.166zM425.062 61.645c0-13.372-3.966-26.446-11.397-37.566s-17.992-19.787-30.35-24.904c-12.354-5.12-25.952-6.457-39.069-3.849-13.119 2.608-25.169 9.050-34.626 18.507-9.457 9.454-15.897 21.504-18.506 34.62s-1.27 26.711 3.848 39.069c5.118 12.354 13.785 22.917 24.907 30.347 11.119 7.43 24.194 11.394 37.569 11.394 17.935 0 35.135-7.123 47.818-19.805 12.683-12.68 19.805-29.88 19.805-47.812zM888.769 61.645c0-13.372-3.966-26.446-11.397-37.566s-17.992-19.787-30.35-24.904c-12.357-5.12-25.952-6.457-39.072-3.849-13.116 2.608-25.166 9.050-34.623 18.507-9.457 9.454-15.899 21.504-18.507 34.62s-1.271 26.711 3.849 39.069c5.117 12.354 13.785 22.917 24.904 30.347 11.122 7.43 24.197 11.394 37.572 11.394 17.935 0 35.135-7.123 47.815-19.805 12.683-12.68 19.808-29.88 19.808-47.812zM907.8 420.069c-2.027-11.128-7.894-21.194-16.58-28.44s-19.64-11.216-30.952-11.213h-582.287l-59.702 328.431h742.025l-52.504-288.778z" />
</font>
</defs>
</svg>
